<svg id="Layer_1" data-name="Layer 1" xmlns="http://www.w3.org/2000/svg" viewBox="0 0 120.39 49.96">
  <defs>
    <style>
      .cls-1 {
        fill: #fff;
      }
    </style>
  </defs>
  <g id="Layer_2" data-name="Layer 2">
    <g id="Layer_3" data-name="Layer 3">
      <g>
        <g>
          <path class="cls-1" d="M39,45.16a4.59,4.59,0,0,1,.51-2.3,3.19,3.19,0,0,1,1.28-1.27,3.61,3.61,0,0,1,1.61-.39,5,5,0,0,1,1.09.12,3.25,3.25,0,0,1,.86.3v.65a4.94,4.94,0,0,0-1-.35,4.23,4.23,0,0,0-1-.14,2.61,2.61,0,0,0-1.31.34,2.42,2.42,0,0,0-1,1.1,4.06,4.06,0,0,0-.4,2,3.41,3.41,0,0,0,.78,2.35,2.64,2.64,0,0,0,2.09.88,5.1,5.1,0,0,0,2-.45v.59a4.34,4.34,0,0,1-2,.45,3.71,3.71,0,0,1-1.76-.42,3,3,0,0,1-1.26-1.28A4.46,4.46,0,0,1,39,45.16Z" transform="translate(0 0)"/>
          <path class="cls-1" d="M51.51,41.39l.11,1.32h0a3.31,3.31,0,0,1,1.24-1.08,3.65,3.65,0,0,1,1.65-.43h.21v.63h-.21a3.42,3.42,0,0,0-2.89,1.72V48.8H51V41.39Z" transform="translate(0 0)"/>
          <path class="cls-1" d="M60.16,45a4.74,4.74,0,0,1,.4-2,3.16,3.16,0,0,1,1.11-1.32,2.8,2.8,0,0,1,1.59-.47,2.66,2.66,0,0,1,2.07.86,3.91,3.91,0,0,1,.78,2.68V45H60.82a3.67,3.67,0,0,0,.77,2.57,2.81,2.81,0,0,0,2.16.82,4.9,4.9,0,0,0,2.1-.42v.59a4.24,4.24,0,0,1-2.1.42,3.39,3.39,0,0,1-2.66-1A4.23,4.23,0,0,1,60.16,45Zm3.1-3.25a2.14,2.14,0,0,0-1.66.75,3.13,3.13,0,0,0-.76,1.93h4.62a3.24,3.24,0,0,0-.58-2,2,2,0,0,0-1.62-.66Z" transform="translate(0 0)"/>
          <path class="cls-1" d="M72.36,46.67a2,2,0,0,1,.71-1.62,2.71,2.71,0,0,1,1.85-.62,6.6,6.6,0,0,1,2.28.44v-1a2.16,2.16,0,0,0-.55-1.59,2.39,2.39,0,0,0-1.74-.54,6.47,6.47,0,0,0-1.9.37v-.59a2.43,2.43,0,0,1,.79-.25,6,6,0,0,1,1.11-.11,3.13,3.13,0,0,1,2.2.68,2.65,2.65,0,0,1,.73,2v2.52q0,.78.06,2.37h-.57l-.11-.87h0a2.93,2.93,0,0,1-1.06.75,3.3,3.3,0,0,1-1.35.32A2.6,2.6,0,0,1,73,48.42,2.19,2.19,0,0,1,72.36,46.67Zm4.84.6V45.42A6.12,6.12,0,0,0,74.85,45a2,2,0,0,0-1.36.43A1.56,1.56,0,0,0,73,46.67,1.69,1.69,0,0,0,73.49,48a1.87,1.87,0,0,0,1.28.44,2.66,2.66,0,0,0,1.43-.35A4.38,4.38,0,0,0,77.2,47.27Z" transform="translate(0 0)"/>
          <path class="cls-1" d="M85.26,47V42H83.79v-.61h1.47v-2h.63v2h2.27V42H85.89v4.85a1.8,1.8,0,0,0,.33,1.21,1.41,1.41,0,0,0,1,.35,3.06,3.06,0,0,0,1-.13v.55a3.33,3.33,0,0,1-1.13.17,1.92,1.92,0,0,1-1.39-.49A2,2,0,0,1,85.26,47Z" transform="translate(0 0)"/>
          <path class="cls-1" d="M94.54,38.9h.73v.76h-.73Zm0,2.49h.63V48.8h-.63Z" transform="translate(0 0)"/>
          <path class="cls-1" d="M102.07,41.39l1.94,5.3c.2.54.37,1,.51,1.49h0L107,41.39h.68l-2.82,7.41h-.69l-2.81-7.41Z" transform="translate(0 0)"/>
          <path class="cls-1" d="M113.33,45a4.74,4.74,0,0,1,.4-2,3.16,3.16,0,0,1,1.11-1.32,2.8,2.8,0,0,1,1.59-.47,2.67,2.67,0,0,1,2.08.86,3.9,3.9,0,0,1,.77,2.68V45H114a3.66,3.66,0,0,0,.76,2.57,2.82,2.82,0,0,0,2.17.82A4.89,4.89,0,0,0,119,48v.59a4.31,4.31,0,0,1-2.09.42,3.45,3.45,0,0,1-2.67-1A4.25,4.25,0,0,1,113.33,45Zm3.1-3.25a2.14,2.14,0,0,0-1.66.75,3.13,3.13,0,0,0-.76,1.93h4.62a3.17,3.17,0,0,0-.58-2,2,2,0,0,0-1.62-.66Z" transform="translate(0 0)"/>
        </g>
        <g>
          <path class="cls-1" d="M36.4,20.27a1.33,1.33,0,0,0-.47-.63,3.49,3.49,0,0,0-.81-.43l-1.23-.51V17.58h9.82V18.7l-2.56.7,2.75,8.19.73,2.4h0l2.85-8.33,1.72-4.08h2.44l3.5,10,.73,2.4h0l3.52-10.4L57,18.7V17.58h7.07V18.7l-1.24.67a7.83,7.83,0,0,0-.79.47,1.3,1.3,0,0,0-.49.66L57.48,31.37l-1.81,3.76H53.09L49.8,25.72,49.09,23h0l-2.83,8.37-1.87,3.76h-2.6Z" transform="translate(0 0)"/>
          <path class="cls-1" d="M73.43,35.4a10.74,10.74,0,0,1-3.6-.59A7.52,7.52,0,0,1,67,33.08a7.68,7.68,0,0,1-1.83-2.83,10.5,10.5,0,0,1-.65-3.89,9.93,9.93,0,0,1,.62-3.54,8.81,8.81,0,0,1,1.79-3,8.72,8.72,0,0,1,2.84-2,9.19,9.19,0,0,1,3.8-.76,8.3,8.3,0,0,1,3.23.59,7.44,7.44,0,0,1,2.36,1.55,6.54,6.54,0,0,1,1.45,2.19,6.67,6.67,0,0,1,.49,2.5v2H69.64a7.69,7.69,0,0,0,1.42,5,5.3,5.3,0,0,0,4.34,1.71,8.48,8.48,0,0,0,1.74-.17A8.78,8.78,0,0,0,78.56,32a8,8,0,0,0,1.15-.53l.9-.49h.48v1.48a18.32,18.32,0,0,1-3.26,2,11.66,11.66,0,0,1-2.09.7A9,9,0,0,1,73.43,35.4Zm2.68-11.2A16.17,16.17,0,0,0,76,22.11a6,6,0,0,0-.46-1.66,2.63,2.63,0,0,0-.89-1.09,2.3,2.3,0,0,0-1.39-.4,3,3,0,0,0-2.54,1.36A5.44,5.44,0,0,0,70,22a11.57,11.57,0,0,0-.32,2.19Z" transform="translate(0 0)"/>
          <path class="cls-1" d="M82.52,33.9l1.91-.64a1.21,1.21,0,0,0,.58-.38.9.9,0,0,0,.2-.61V12.39a1.22,1.22,0,0,0-.23-.76,1.63,1.63,0,0,0-.8-.49l-1.83-.64V9.55l7.76-1.32v24a.87.87,0,0,0,.23.63,1.58,1.58,0,0,0,.56.36l1.7.64V35H82.52Z" transform="translate(0 0)"/>
          <path class="cls-1" d="M93.72,33.9l1.9-.64a1.28,1.28,0,0,0,.59-.38.94.94,0,0,0,.19-.61V12.39a1.22,1.22,0,0,0-.23-.76,1.59,1.59,0,0,0-.8-.49l-1.83-.64V9.55l7.77-1.32v24a.82.82,0,0,0,.22.63,1.58,1.58,0,0,0,.56.36l1.71.64V35H93.72Z" transform="translate(0 0)"/>
          <path class="cls-1" d="M112.22,35.52a19,19,0,0,1-2-.11q-.91-.12-1.71-.3l-1.46-.39-1.3-.38V29.25h1.65l.66,1.91a1.79,1.79,0,0,0,.2.39,1.62,1.62,0,0,0,.32.32,3,3,0,0,0,.35.27l.36.2a7.76,7.76,0,0,0,.77.37c.32.13.65.25,1,.36a9.62,9.62,0,0,0,1.09.26,5.47,5.47,0,0,0,1.07.11,4.23,4.23,0,0,0,1.06-.14,2.14,2.14,0,0,0,.85-.43,2.25,2.25,0,0,0,.56-.77,3.2,3.2,0,0,0,.2-1.19,1.7,1.7,0,0,0-.27-1,2.59,2.59,0,0,0-.72-.68,4.15,4.15,0,0,0-1-.47q-.57-.2-1.17-.36l-1.59-.4c-.47-.12-.93-.26-1.39-.4a6.48,6.48,0,0,1-1.58-.73A4.93,4.93,0,0,1,107,25.76a4,4,0,0,1-.74-1.42A5.69,5.69,0,0,1,106,22.6a4.37,4.37,0,0,1,.6-2.26,5.7,5.7,0,0,1,1.66-1.76,8.23,8.23,0,0,1,2.46-1.14,10.9,10.9,0,0,1,3-.4q1,0,1.74.06a8.18,8.18,0,0,1,1.4.16c.4.07.84.14,1.23.23l1.2.27.25,5.08h-1.71L117.09,21a1.88,1.88,0,0,0-.44-.64,2.7,2.7,0,0,0-.66-.46c-.2-.1-.42-.2-.67-.3a7.24,7.24,0,0,0-.79-.25,8.23,8.23,0,0,0-.86-.19,4.91,4.91,0,0,0-.86-.07,2.54,2.54,0,0,0-.77.13,2.31,2.31,0,0,0-.74.4,2,2,0,0,0-.56.69,2,2,0,0,0-.23,1,2.39,2.39,0,0,0,.22,1.05,2.29,2.29,0,0,0,.58.73,4,4,0,0,0,.85.48,9.06,9.06,0,0,0,1,.34l1.5.47,1.23.39a12,12,0,0,1,1.83.72,5.88,5.88,0,0,1,1.42,1,4.14,4.14,0,0,1,.92,1.31,4.44,4.44,0,0,1,.33,1.76,5.18,5.18,0,0,1-.68,2.69,5.64,5.64,0,0,1-1.83,1.87,8.22,8.22,0,0,1-2.61,1.09A13.56,13.56,0,0,1,112.22,35.52Z" transform="translate(0 0)"/>
        </g>
        <g>
          <path class="cls-1" d="M28.28,24a51.51,51.51,0,0,0-6.61-3.6c-4-2.15-6.46-2.89-8.91-6.1-2-2.54-1.92-7.45.65-9.49,2.42-2.24,8.42-2.53,10.77.24,1.07,1.12,1.91,3.09,2.53,5.89a2,2,0,0,0,2.19,1.55h0a2,2,0,0,0,1.71-2.12c-.13-1.61-.21-3.66-.23-6.17a2,2,0,0,0-1-1.8C20.26-2.39,5.21-.45,5.47,12.23c0,8,5.77,11,12.41,14.24,4,2,6.4,2.72,8.81,5.82,2,2.6,1.83,7.45-.78,9.6-2,2.07-7.6,2.4-10.7,1.34-.16,0-.29-.14-.44-.2-3.67-1.47-5.23-5.35-4.69-9,.15-.63.14-1.35.23-2C11,27.75,5,26.62,3.72,30.67v.18h0a4.05,4.05,0,0,0-.11,1.39c0,1.44-1,2.56-1.37,3.87a3.33,3.33,0,0,0,.65,3.51,8.56,8.56,0,0,1,2,3.87,9.73,9.73,0,0,0,7.7,6.39c2.24.33,4.09-.51,6.23-.91s4.4.66,6.62.5a6.8,6.8,0,0,0,5.23-3.13c.93-1.8,1.15-3.52,2.81-4.94a10.22,10.22,0,0,0,3-5.33C37.27,30.76,28.54,24,28.28,24Z" transform="translate(0 0)"/>
          <path class="cls-1" d="M3.51,23.54a1.51,1.51,0,0,0-2.92.78,2,2,0,0,0,.08.22C1.43,26.75,4.2,25.7,3.51,23.54Z" transform="translate(0 0)"/>
          <path class="cls-1" d="M1.7,31.15c-.36-1-2-.57-1.65.49a.85.85,0,0,0,1.07.58A.85.85,0,0,0,1.7,31.15Z" transform="translate(0 0)"/>
          <path class="cls-1" d="M7.41,25.35c-.65,0-.54,1,.1,1S8.05,25.35,7.41,25.35Z" transform="translate(0 0)"/>
          <path class="cls-1" d="M11.2,44.56a6.22,6.22,0,0,0-1.2-.69,1.72,1.72,0,0,1-.79-1.26c-.09-.58-.42-1.09-1-1a1.35,1.35,0,0,0-1,1.61,1.24,1.24,0,0,0,.24.52c.83,1.23.42,1.72.94,2.41a2.27,2.27,0,0,0,1.92.8C12.08,47.09,12.14,45.31,11.2,44.56Z" transform="translate(0 0)"/>
          <path class="cls-1" d="M33.78,33.13c-.37-1-1.33-1.87-2-1.45-.74.8.52,1.11.13,2.9a10.21,10.21,0,0,0-.57,2.17c0,1,1.61,1.37,2.14.51A4.34,4.34,0,0,0,33.78,33.13Z" transform="translate(0 0)"/>
          <path class="cls-1" d="M29.41,31.39c0-.78-1-2.08-1.79-1.41C26.5,31.1,29.35,33.35,29.41,31.39Z" transform="translate(0 0)"/>
          <path class="cls-1" d="M4.3,36.56c-1.29,0-1.08,2,.2,2S5.57,36.56,4.3,36.56Z" transform="translate(0 0)"/>
          <path class="cls-1" d="M30.8,39.69c-1.08-.42-2.07,1.26-1.36,2.05C30.53,42.57,32,40.32,30.8,39.69Z" transform="translate(0 0)"/>
          <path class="cls-1" d="M8.81,31.12c-.42-2.42-3.5-1.86-3.63.6C5.06,34,9.12,33.25,8.81,31.12Z" transform="translate(0 0)"/>
        </g>
      </g>
    </g>
  </g>
</svg>
