<svg xmlns="http://www.w3.org/2000/svg" viewBox="0 0 120.38 50">
  <defs>
    <style>
      .cls-1 {
        fill: #231f20;
      }

      .cls-2 {
        fill: #fff;
      }
    </style>
  </defs>
  <g id="Layer_2" data-name="Layer 2">
    <g id="Layer_3" data-name="Layer 3">
      <g>
        <g>
          <path class="cls-1" d="M39,45.16a4.58,4.58,0,0,1,.51-2.3,3.18,3.18,0,0,1,1.28-1.27,3.57,3.57,0,0,1,1.61-.39,4.86,4.86,0,0,1,1.09.12,3.18,3.18,0,0,1,.86.3v.65a4.59,4.59,0,0,0-1-.35,4.15,4.15,0,0,0-1-.14,2.64,2.64,0,0,0-1.31.34,2.44,2.44,0,0,0-1,1.1,4.14,4.14,0,0,0-.4,2,3.4,3.4,0,0,0,.78,2.35,2.63,2.63,0,0,0,2.09.88A5.13,5.13,0,0,0,44.47,48v.59a4.38,4.38,0,0,1-2,.45,3.69,3.69,0,0,1-1.76-.42,3.11,3.11,0,0,1-1.26-1.28A4.49,4.49,0,0,1,39,45.16Z"/>
          <path class="cls-1" d="M51.51,41.39l.11,1.32h0a3.39,3.39,0,0,1,1.24-1.08,3.56,3.56,0,0,1,1.65-.43h.21v.63h-.21a3.19,3.19,0,0,0-1.67.48,3.16,3.16,0,0,0-1.22,1.24V48.8H51V41.39Z"/>
          <path class="cls-1" d="M60.16,45a4.78,4.78,0,0,1,.4-2,3.15,3.15,0,0,1,1.11-1.32,2.83,2.83,0,0,1,1.59-.47,2.67,2.67,0,0,1,2.07.86,3.87,3.87,0,0,1,.78,2.68V45H60.82a3.67,3.67,0,0,0,.77,2.57,2.8,2.8,0,0,0,2.16.82,4.92,4.92,0,0,0,2.1-.42v.59a4.29,4.29,0,0,1-2.1.42,3.4,3.4,0,0,1-2.66-1A4.25,4.25,0,0,1,60.16,45Zm3.1-3.25a2.14,2.14,0,0,0-1.66.75,3.12,3.12,0,0,0-.76,1.93h4.62a3.22,3.22,0,0,0-.58-2A2,2,0,0,0,63.26,41.77Z"/>
          <path class="cls-1" d="M72.36,46.67a2,2,0,0,1,.71-1.62,2.76,2.76,0,0,1,1.85-.62,6.71,6.71,0,0,1,2.28.44v-1a2.12,2.12,0,0,0-.55-1.59,2.39,2.39,0,0,0-1.74-.54,6.42,6.42,0,0,0-1.9.37v-.59a2.43,2.43,0,0,1,.79-.25,6.05,6.05,0,0,1,1.11-.11,3.12,3.12,0,0,1,2.2.68,2.66,2.66,0,0,1,.73,2v2.52q0,.78.06,2.37h-.57l-.11-.87h0a2.94,2.94,0,0,1-1.06.75,3.25,3.25,0,0,1-1.35.32A2.58,2.58,0,0,1,73,48.42,2.21,2.21,0,0,1,72.36,46.67Zm4.84.6V45.42a6.43,6.43,0,0,0-1.07-.31A7.11,7.11,0,0,0,74.85,45a2,2,0,0,0-1.36.43A1.57,1.57,0,0,0,73,46.67,1.67,1.67,0,0,0,73.49,48a1.84,1.84,0,0,0,1.28.44,2.73,2.73,0,0,0,1.43-.35A4.13,4.13,0,0,0,77.2,47.27Z"/>
          <path class="cls-1" d="M85.26,47V42H83.79v-.61h1.47v-2h.63v2h2.27V42H85.89v4.85a1.77,1.77,0,0,0,.33,1.21,1.41,1.41,0,0,0,1,.35,3.14,3.14,0,0,0,1-.13v.55a3.53,3.53,0,0,1-1.13.17,1.93,1.93,0,0,1-1.39-.49A2,2,0,0,1,85.26,47Z"/>
          <path class="cls-1" d="M94.54,38.9h.73v.76h-.73Zm0,2.49h.63V48.8h-.63Z"/>
          <path class="cls-1" d="M102.07,41.39l1.94,5.3c.2.54.37,1,.51,1.49h0L107,41.39h.68l-2.82,7.41h-.69l-2.81-7.41Z"/>
          <path class="cls-1" d="M113.33,45a4.78,4.78,0,0,1,.4-2,3.15,3.15,0,0,1,1.11-1.32,2.83,2.83,0,0,1,1.59-.47,2.68,2.68,0,0,1,2.08.86,3.92,3.92,0,0,1,.77,2.68V45H114a3.67,3.67,0,0,0,.76,2.57,2.83,2.83,0,0,0,2.17.82A4.9,4.9,0,0,0,119,48v.59a4.27,4.27,0,0,1-2.09.42,3.44,3.44,0,0,1-2.67-1A4.25,4.25,0,0,1,113.33,45Zm3.1-3.25a2.14,2.14,0,0,0-1.66.75,3.12,3.12,0,0,0-.76,1.93h4.62a3.16,3.16,0,0,0-.58-2A2,2,0,0,0,116.43,41.77Z"/>
        </g>
        <g>
          <path class="cls-1" d="M36.4,20.27a1.35,1.35,0,0,0-.47-.63,3.82,3.82,0,0,0-.81-.43l-1.23-.51V17.58h9.82V18.7l-2.56.7,2.75,8.19.73,2.4h0l2.85-8.33,1.72-4.08h2.44l3.5,10,.73,2.4h0l3.52-10.4L57,18.7V17.58h7.07V18.7l-1.24.67a7.5,7.5,0,0,0-.79.47,1.33,1.33,0,0,0-.49.66L57.48,31.37l-1.81,3.76H53.09L49.8,25.72,49.09,23h0l-2.83,8.37-1.87,3.76H41.79Z"/>
          <path class="cls-1" d="M73.43,35.4a10.54,10.54,0,0,1-3.6-.59A7.51,7.51,0,0,1,67,33.08a7.69,7.69,0,0,1-1.83-2.83,10.61,10.61,0,0,1-.65-3.89,10,10,0,0,1,.62-3.54,8.73,8.73,0,0,1,1.79-3,8.55,8.55,0,0,1,2.84-2,9.24,9.24,0,0,1,3.8-.76,8.34,8.34,0,0,1,3.23.59,7.34,7.34,0,0,1,2.36,1.55,6.59,6.59,0,0,1,1.45,2.19,6.66,6.66,0,0,1,.49,2.5c0,.11,0,.26,0,.45s0,.37,0,.57,0,.38,0,.56,0,.3,0,.38H69.64a7.67,7.67,0,0,0,1.42,5,5.29,5.29,0,0,0,4.34,1.71,8.41,8.41,0,0,0,1.74-.17A8.51,8.51,0,0,0,78.56,32a8.23,8.23,0,0,0,1.15-.53l.9-.49h.48v1.48a12.82,12.82,0,0,1-1.44,1,13,13,0,0,1-1.82,1,12.21,12.21,0,0,1-2.09.7A9.37,9.37,0,0,1,73.43,35.4Zm2.68-11.2A16.94,16.94,0,0,0,76,22.11a5.81,5.81,0,0,0-.46-1.66,2.68,2.68,0,0,0-.89-1.09,2.29,2.29,0,0,0-1.39-.4,2.93,2.93,0,0,0-1.46.36,3.06,3.06,0,0,0-1.08,1A5.46,5.46,0,0,0,70,22a11.51,11.51,0,0,0-.32,2.19Z"/>
          <path class="cls-1" d="M82.52,33.9l1.91-.64a1.25,1.25,0,0,0,.58-.38.93.93,0,0,0,.2-.61V12.39a1.25,1.25,0,0,0-.23-.76,1.69,1.69,0,0,0-.8-.49l-1.83-.64V9.55l7.76-1.32v24a.85.85,0,0,0,.23.63,1.51,1.51,0,0,0,.56.36l1.7.64V35H82.52Z"/>
          <path class="cls-1" d="M93.72,33.9l1.9-.64a1.29,1.29,0,0,0,.59-.38.93.93,0,0,0,.19-.61V12.39a1.19,1.19,0,0,0-.23-.76,1.64,1.64,0,0,0-.8-.49l-1.83-.64V9.55l7.77-1.32v24a.85.85,0,0,0,.22.63,1.69,1.69,0,0,0,.56.36l1.71.64V35H93.72Z"/>
          <path class="cls-1" d="M112.22,35.52a17.6,17.6,0,0,1-2-.11q-.91-.12-1.71-.3l-1.46-.39-1.3-.38V29.25h1.65l.66,1.91a1.79,1.79,0,0,0,.2.39,1.62,1.62,0,0,0,.32.32,3,3,0,0,0,.35.27,3.24,3.24,0,0,0,.36.2,6.25,6.25,0,0,0,.77.37c.32.13.65.25,1,.36s.72.19,1.09.26a5.8,5.8,0,0,0,1.07.11,3.94,3.94,0,0,0,1.06-.14,2.07,2.07,0,0,0,.85-.43,2.22,2.22,0,0,0,.56-.77,3.18,3.18,0,0,0,.2-1.19,1.7,1.7,0,0,0-.27-1,2.49,2.49,0,0,0-.72-.68,4.35,4.35,0,0,0-1-.47q-.57-.19-1.17-.36L111.14,28c-.47-.12-.93-.26-1.39-.4a6.56,6.56,0,0,1-1.58-.73A4.85,4.85,0,0,1,107,25.76a4.18,4.18,0,0,1-.74-1.42A5.76,5.76,0,0,1,106,22.6a4.37,4.37,0,0,1,.6-2.26,5.78,5.78,0,0,1,1.66-1.76,8.2,8.2,0,0,1,2.46-1.14,10.89,10.89,0,0,1,3-.4q1,0,1.74.06c.5,0,1,.09,1.4.16s.84.14,1.23.23l1.2.27.25,5.08h-1.71L117.09,21a1.71,1.71,0,0,0-.44-.64,2.7,2.7,0,0,0-.66-.46c-.2-.1-.42-.2-.67-.3a6.7,6.7,0,0,0-.79-.25,8.23,8.23,0,0,0-.86-.19,5.07,5.07,0,0,0-.86-.07,2.49,2.49,0,0,0-.77.13,2.31,2.31,0,0,0-.74.4,2,2,0,0,0-.56.69,2.13,2.13,0,0,0-.23,1,2.39,2.39,0,0,0,.22,1.05,2.18,2.18,0,0,0,.58.73,3.9,3.9,0,0,0,.85.48,8.83,8.83,0,0,0,1,.34l1.5.47,1.23.39a11.25,11.25,0,0,1,1.83.72,5.68,5.68,0,0,1,1.42,1,4,4,0,0,1,.92,1.31,4.35,4.35,0,0,1,.33,1.76,5.19,5.19,0,0,1-.68,2.69,5.73,5.73,0,0,1-1.83,1.87,8.4,8.4,0,0,1-2.61,1.09A13.31,13.31,0,0,1,112.22,35.52Z"/>
        </g>
        <g>
          <path class="cls-1" d="M28.28,24a52.32,52.32,0,0,0-6.61-3.6c-4-2.15-6.46-2.89-8.91-6.1-2-2.54-1.92-7.45.65-9.49,2.42-2.24,8.42-2.53,10.77.24,1.07,1.12,1.91,3.09,2.53,5.89a2,2,0,0,0,2.19,1.55h0a2,2,0,0,0,1.71-2.12c-.13-1.61-.21-3.66-.23-6.17A2,2,0,0,0,29.35,2.4C20.26-2.39,5.21-.45,5.47,12.23c0,8,5.77,11,12.41,14.24,4,2,6.4,2.72,8.81,5.82,2,2.6,1.83,7.45-.78,9.6-2,2.07-7.6,2.4-10.7,1.34-.16,0-.29-.14-.44-.2-3.67-1.47-5.23-5.35-4.69-9,.15-.63.14-1.35.23-2C11,27.75,5,26.62,3.72,30.67c0,0,0,0,0,.07l0,.11a.07.07,0,0,0,0,0,4.09,4.09,0,0,0-.11,1.39c0,1.44-1,2.56-1.37,3.87a3.33,3.33,0,0,0,.65,3.51,8.62,8.62,0,0,1,2,3.87,9.75,9.75,0,0,0,7.7,6.39c2.24.33,4.09-.51,6.23-.91s4.4.66,6.62.5a6.8,6.8,0,0,0,5.23-3.13c.93-1.8,1.15-3.52,2.81-4.94a10.18,10.18,0,0,0,3-5.33C37.27,30.76,28.54,24,28.28,24Z"/>
          <path class="cls-1" d="M3.51,23.54a1.51,1.51,0,1,0-2.84,1C1.43,26.75,4.2,25.7,3.51,23.54Z"/>
          <path class="cls-1" d="M1.7,31.15c-.36-1-2-.57-1.65.49A.86.86,0,1,0,1.7,31.15Z"/>
          <path class="cls-1" d="M7.41,25.35c-.65,0-.54,1,.1,1S8.05,25.35,7.41,25.35Z"/>
          <path class="cls-2" d="M11.2,44.56A6.15,6.15,0,0,0,10,43.87a1.71,1.71,0,0,1-.79-1.26c-.09-.58-.42-1.09-1-1a1.35,1.35,0,0,0-.79,2.13c.83,1.23.42,1.72.94,2.41a2.29,2.29,0,0,0,1.92.8C12.08,47.09,12.14,45.31,11.2,44.56Z"/>
          <path class="cls-2" d="M33.78,33.13c-.37-1-1.33-1.87-2-1.45-.74.8.52,1.11.13,2.9a10.38,10.38,0,0,0-.57,2.17c0,1,1.61,1.37,2.14.51A4.33,4.33,0,0,0,33.78,33.13Z"/>
          <path class="cls-2" d="M29.41,31.39c0-.78-1-2.08-1.79-1.41C26.5,31.1,29.35,33.35,29.41,31.39Z"/>
          <path class="cls-2" d="M4.3,36.56c-1.29,0-1.08,2,.2,2S5.57,36.56,4.3,36.56Z"/>
          <path class="cls-2" d="M30.8,39.69c-1.08-.42-2.07,1.26-1.36,2.05C30.53,42.57,32,40.32,30.8,39.69Z"/>
          <path class="cls-2" d="M8.81,31.12c-.42-2.42-3.5-1.86-3.63.6C5.06,34,9.12,33.25,8.81,31.12Z"/>
        </g>
      </g>
    </g>
  </g>
</svg>
