<svg xmlns="http://www.w3.org/2000/svg" xmlns:xlink="http://www.w3.org/1999/xlink" viewBox="0 0 56 56">
  <defs>
    <style>
      .cls-1 {
        fill: url(#linear-gradient);
      }
    </style>
    <linearGradient id="linear-gradient" x1="28" y1="56" x2="28" gradientUnits="userSpaceOnUse">
      <stop offset="0" stop-color="#18d0c1"/>
      <stop offset="1" stop-color="#2af598"/>
    </linearGradient>
  </defs>
  <g id="Layer_2" data-name="Layer 2">
    <g id="Capa_1" data-name="Capa 1">
      <path class="cls-1" d="M28,0A28,28,0,1,0,56,28,28,28,0,0,0,28,0ZM40,41H16a2,2,0,0,1,0-4H40a2,2,0,0,1,0,4Zm0-11H16a2,2,0,0,1,0-4H40a2,2,0,0,1,0,4Zm0-11H16a2,2,0,0,1,0-4H40a2,2,0,0,1,0,4Z"/>
    </g>
  </g>
</svg>
